<svg width="174" height="200" viewBox="0 0 174 200" fill="none" xmlns="http://www.w3.org/2000/svg">
<path fill-rule="evenodd" clip-rule="evenodd" d="M113.482 23.0804C116.819 21.1515 116.811 16.3318 113.467 14.4142L89.4901 0.662716C87.9481 -0.221695 86.0524 -0.220853 84.5111 0.664929L2.50858 47.7928C0.956742 48.6847 0 50.338 0 52.1279V146.856C0 148.638 0.948596 150.285 2.48992 151.18L84.4899 198.778C86.042 199.678 87.958 199.678 89.5101 198.778L171.51 151.18C173.051 150.285 174 148.638 174 146.856V120.204C174 116.355 169.832 113.949 166.498 115.875L90.505 159.787C88.9554 160.682 87.0453 160.681 85.4967 159.784L36.9932 131.679C35.45 130.785 34.5 129.137 34.5 127.353V71.6196C34.5 69.8342 35.452 68.1843 36.9978 67.2908L113.482 23.0804ZM136.001 30.1731C137.548 29.2828 139.451 29.284 140.997 30.1763L171.5 47.7911C173.047 48.6843 174 50.3348 174 52.121V88.3659C174 90.1425 173.057 91.7857 171.523 92.6824L149.023 105.836C145.69 107.785 141.5 105.381 141.5 101.52V71.6064C141.5 69.8281 140.555 68.1836 139.019 67.2875L112.952 52.0817C109.634 50.146 109.648 45.3466 112.977 43.4297L136.001 30.1731Z" fill="url(#paint0_linear_110_4)"/>
<defs>
<linearGradient id="paint0_linear_110_4" x1="-1.88352e-06" y1="148.846" x2="173.335" y2="48.9574" gradientUnits="userSpaceOnUse">
<stop stop-color="#2980B9"/>
<stop offset="0.28" stop-color="#2980B9"/>
<stop offset="1" stop-color="#2ECC71"/>
</linearGradient>
</defs>
</svg>
